<?xml version="1.0" encoding="UTF-8"?>
                <svg width="46.08pt" height="46.08pt" version="1.1" viewBox="0 0 46.08 46.08" xmlns="http://www.w3.org/2000/svg">
                <g fill-rule="evenodd" stroke-linecap="square" stroke-linejoin="bevel">
                <g stroke-width="5.76">
                <path transform="matrix(.29872 0 0 .29872 2.589 30.575)" d="m23.368 7.1374c8.595-6.8542 20.565-9.3877 31.32-4.86 8.4372 20.467 1.1007 24.927-3.375 33.21-15.762 11.209-43.725 3.6069-51.312-2.4618 20.664-7.7574 20.542-17.077 23.368-25.888z" 
                fill="#ffe5bf" stroke="#ffe5bf"/>
                <path transform="matrix(.29872 0 0 .29872 19.275 1.8962)" d="m0 79.426c3.1905-27.078 42.448-52.217 74.97-78.12 10.02-4.7364 11.749 4.5661 9.27 9.45-25.343 29.927-37.569 64.862-66.96 82.71z" 
                fill="#e7ad51" stroke="#e7ad51"/>
                <path transform="matrix(.29872 0 0 .29872 16.667 26.174)" d="M0 12.285L4.995 0C11.0144 1.24279 18.2317 8.40571 23.76 15.39L12.15 23.085L0 12.285" 
                fill="#999" stroke="#999"/>
                </g>
                <path id="pincel_bico" transform="matrix(.29872 0 0 .29872 1.3393 33.077)" d="m24.312 0c9.675 4.6658 5.265 27.152 14.58 9.45 1.0572 25.057 4.4307 10.797 17.505 17.46-1.8573 13.909-40.17 14.677-56.398-3.8118 20.664-7.7574 21.487-14.287 24.312-23.098z" 
                fill="#4096f5" stroke="#000" stroke-opacity="0" stroke-width="0"/>
                </g>
            </svg>
